<?xml version="1.0" encoding="UTF-8"?>
<svg version="1.1" xmlns="http://www.w3.org/2000/svg" width="1752" height="430">
<path d="M0 0 C2.30383321 -0.00322213 4.60766622 -0.00658688 6.91149902 -0.01008606 C11.72583489 -0.01604632 16.5401529 -0.01792925 21.35449219 -0.01733398 C27.46143591 -0.01723272 33.56826245 -0.03086234 39.67517853 -0.04810619 C44.4318899 -0.05933949 49.18857398 -0.06124973 53.94529724 -0.06072426 C56.19348045 -0.06188826 58.44166475 -0.06621875 60.68983459 -0.07405663 C79.28822113 -0.13281523 98.04967666 0.31088182 116.28125 4.35546875 C117.75948242 4.67584106 117.75948242 4.67584106 119.26757812 5.00268555 C135.51351005 8.67259057 150.63152987 14.15134707 165.21875 22.16796875 C166.26160156 22.72097656 167.30445313 23.27398438 168.37890625 23.84375 C185.79372023 33.45746154 202.86090448 48.08854262 213.21875 65.16796875 C214.06953125 66.45960937 214.06953125 66.45960937 214.9375 67.77734375 C231.53497463 94.12947452 234.81040205 128.05995877 228.1796875 158.08203125 C220.18526032 191.61069879 198.32998927 219.1896228 169.26171875 237.39355469 C141.08119269 254.52698103 108.76066245 263.29271468 75.80004883 263.32910156 C74.15615425 263.33654892 74.15615425 263.33654892 72.47904968 263.34414673 C68.87795362 263.35866588 65.2769017 263.36555579 61.67578125 263.37109375 C60.4338822 263.37392113 59.19198315 263.3767485 57.91245079 263.37966156 C52.00657165 263.39308234 46.10070571 263.40298569 40.19481355 263.40686345 C33.45020457 263.41131979 26.7058007 263.42876553 19.96125394 263.45786405 C14.06238079 263.48240098 8.16357374 263.48982302 2.26465416 263.491539 C-0.21436995 263.494529 -2.69339399 263.50243052 -5.17238426 263.51572418 C-50.37098261 263.74066184 -93.75199993 254.15995476 -128.78125 224.16796875 C-129.61269531 223.45898438 -130.44414063 222.75 -131.30078125 222.01953125 C-140.41161869 214.04230031 -148.20313232 205.34110423 -154.78125 195.16796875 C-155.35617187 194.30042969 -155.93109375 193.43289062 -156.5234375 192.5390625 C-172.8762398 166.41091837 -176.96471631 132.08398705 -170.75 102.1953125 C-163.42082306 70.56930827 -143.54745928 44.63779311 -116.19287109 27.42553711 C-114.39792156 26.3239021 -112.59344014 25.24098895 -110.78125 24.16796875 C-110.19504883 23.81992187 -109.60884766 23.471875 -109.00488281 23.11328125 C-75.59514647 3.59216128 -37.88584182 0.0125599 0 0 Z M-76.91796875 96.45703125 C-85.36122908 106.53033533 -89.18281268 119.36498972 -89.15625 132.35546875 C-89.15463867 133.18409424 -89.15302734 134.01271973 -89.15136719 134.86645508 C-89.00787368 142.12764849 -87.5647524 148.4411713 -84.78125 155.16796875 C-84.4925 155.90015625 -84.20375 156.63234375 -83.90625 157.38671875 C-76.91824312 173.10973424 -62.10239906 182.68854007 -46.78125 189.16796875 C-39.14304078 192.06397225 -31.64802983 193.46301788 -23.56274414 194.25683594 C-22.69141625 194.3424667 -21.82008837 194.42809746 -20.92235661 194.51632309 C-11.57976062 195.3693301 -2.27705321 195.45867673 7.09765625 195.43359375 C8.92927603 195.43494778 10.76089546 195.43689436 12.59251404 195.43939209 C16.39496346 195.44230804 20.19731768 195.43816093 23.99975586 195.42871094 C28.81545616 195.41731042 33.63093351 195.42390254 38.44662571 195.43585587 C42.21756092 195.44316408 45.98844531 195.44074612 49.75938225 195.43560028 C51.53276536 195.43428882 53.30615345 195.43582088 55.07953072 195.44055939 C64.23443999 195.45967097 73.28546245 195.21697405 82.39819336 194.28808594 C83.53186891 194.17427771 83.53186891 194.17427771 84.688447 194.05817032 C104.8332212 191.78509138 123.36304818 182.89777782 136.59375 167.29296875 C146.90805913 153.68146244 148.53546651 138.70579929 147.21875 122.16796875 C146.51702672 117.59555267 145.07040021 113.40118223 143.21875 109.16796875 C142.868125 108.36488281 142.5175 107.56179687 142.15625 106.734375 C138.95289131 100.31653485 134.21005752 95.25249254 129.21875 90.16796875 C128.61417969 89.53890625 128.00960937 88.90984375 127.38671875 88.26171875 C112.81012271 74.28851121 91.12866085 68.84085297 71.47753906 68.89331055 C70.46614868 68.88819962 69.4547583 68.88308868 68.41271973 68.87782288 C65.10320954 68.86403979 61.7939103 68.86487539 58.484375 68.8671875 C56.15948409 68.86329386 53.83459389 68.85895782 51.50970459 68.85420227 C46.64804779 68.84676387 41.78646363 68.84701366 36.92480469 68.85229492 C30.73069942 68.85808058 24.53689405 68.84116844 18.34283829 68.81795025 C13.54350073 68.80313276 8.74423401 68.80235217 3.94487762 68.80545998 C1.66299598 68.8049506 -0.61889003 68.79978591 -2.90074921 68.78964806 C-32.02624498 68.67613133 -56.40806477 74.48481236 -76.91796875 96.45703125 Z " fill="#363334" transform="translate(1520.78125,5.83203125)"/>
<path d="M0 0 C1.34640814 -0.00045416 2.69282079 -0.00529599 4.03919983 -0.01416016 C7.68179624 -0.02553256 11.32116466 0.02489194 14.96314788 0.08718967 C18.7995562 0.14263583 22.63598606 0.14229058 26.47273254 0.14862061 C32.92834483 0.16701138 39.38276968 0.22195977 45.83789062 0.30273438 C54.86939501 0.41566293 63.90029273 0.46098609 72.93239248 0.49330378 C80.01466134 0.52147001 87.09681112 0.57034696 94.17895508 0.62011719 C94.92430567 0.62499177 95.66965625 0.62986635 96.43759322 0.63488865 C117.84370346 0.77861658 139.22284885 0.99554501 160.26098633 5.41699219 C161.30931641 5.63460205 162.35764648 5.85221191 163.43774414 6.07641602 C192.3118754 12.29746279 217.66879803 25.44977618 239.57348633 45.16699219 C240.29922852 45.80894531 241.0249707 46.45089844 241.77270508 47.11230469 C262.68624561 66.71079501 273.88468954 95.44053432 274.85864258 123.71777344 C275.1096901 136.49160908 274.70762621 148.75680925 271.57348633 161.16699219 C271.40719727 161.82666992 271.2409082 162.48634766 271.06958008 163.16601562 C262.12329046 197.50982743 237.33203335 224.2885579 207.23999023 242.02197266 C169.94094227 263.27385081 130.14174438 264.64142752 88.36000061 264.471174 C82.90285384 264.45219414 77.44570007 264.45064022 71.98852539 264.44709778 C61.69385623 264.43783904 51.39928466 264.41331045 41.10465813 264.38304931 C27.16579185 264.34298079 13.22689816 264.32700046 -0.71201134 264.30954266 C-22.6169183 264.2814836 -44.52161949 264.22167341 -66.42651367 264.16699219 C-66.42651367 210.04699219 -66.42651367 155.92699219 -66.42651367 100.16699219 C-38.70651367 100.16699219 -10.98651367 100.16699219 17.57348633 100.16699219 C17.57348633 131.84699219 17.57348633 163.52699219 17.57348633 196.16699219 C34.64969824 196.01771292 34.64969824 196.01771292 51.72583008 195.86035156 C58.69960592 195.79429652 65.67338129 195.72914874 72.6472168 195.66967773 C78.27530735 195.62162287 83.9033436 195.56927083 89.53136826 195.51405144 C91.66891995 195.49381243 93.80648641 195.4750714 95.94406509 195.45791817 C117.2379146 195.61338896 117.2379146 195.61338896 138.19848633 192.41699219 C138.91230469 192.23998779 139.62612305 192.0629834 140.36157227 191.88061523 C157.81943996 187.37099301 173.85407795 177.88480949 183.38598633 162.22949219 C191.26338523 147.99993107 192.83657135 132.14827959 188.67114258 116.35839844 C182.81211709 99.32343822 170.87883242 87.41516127 155.05004883 79.37792969 C142.93718792 73.9498706 130.73086492 71.02665986 117.44264221 71.0087738 C116.65261918 71.00383583 115.86259616 70.99889785 115.04863304 70.99381024 C112.41702688 70.97852435 109.78544496 70.97009894 107.15380859 70.96166992 C105.26117238 70.95208438 103.36853827 70.94207391 101.47590637 70.93167114 C96.34839878 70.90468925 91.22088205 70.88364341 86.09334302 70.86366916 C80.73082654 70.84176809 75.36833802 70.81439959 70.00584412 70.78761292 C59.85587632 70.73774169 49.70589297 70.69278223 39.55589479 70.64959055 C27.99849736 70.60017053 16.44112799 70.54527009 4.88375771 70.48991096 C-18.88630656 70.37617644 -42.65639775 70.26931888 -66.42651367 70.16699219 C-64.60375828 67.09640117 -62.76931573 64.18300691 -60.56323242 61.37402344 C-60.01344727 60.67083984 -59.46366211 59.96765625 -58.8972168 59.24316406 C-58.30875977 58.49615234 -57.72030273 57.74914063 -57.11401367 56.97949219 C-55.84701278 55.36106039 -54.58008779 53.74256915 -53.31323242 52.12402344 C-52.34329346 50.88773193 -52.34329346 50.88773193 -51.35375977 49.62646484 C-48.36715047 45.81507619 -45.39726921 41.99074111 -42.42651367 38.16699219 C-41.26772685 36.67735647 -40.10887236 35.18777338 -38.94995117 33.69824219 C-36.53659345 30.5955464 -34.12543061 27.49115964 -31.71557617 24.38574219 C-31.10198242 23.59554688 -30.48838867 22.80535156 -29.85620117 21.99121094 C-28.70196273 20.50469173 -27.54826427 19.01775298 -26.39526367 17.53027344 C-25.34544867 16.17870002 -24.2848611 14.83540041 -23.21186543 13.5021553 C-21.38017643 11.18166944 -21.38017643 11.18166944 -19.82123852 8.60242844 C-14.28741437 0.35650634 -9.57304451 -0.25181239 0 0 Z " fill="#363334" transform="translate(925.426513671875,4.8330078125)"/>
<path d="M0 0 C1.42636354 -0.0083016 1.42636354 -0.0083016 2.8815425 -0.0167709 C6.08273363 -0.03043383 9.28315264 -0.01537674 12.48432922 -0.00050354 C14.77405632 -0.00428498 17.06378113 -0.00978358 19.35350037 -0.01687622 C25.58776584 -0.03088099 31.82175681 -0.01962118 38.05600715 -0.00316501 C44.58418488 0.01066764 51.11234636 0.00422662 57.64053345 0.0007019 C68.61894487 -0.00273553 79.59725324 0.01141278 90.57563782 0.03465271 C101.84390832 0.05850336 113.11203412 0.06568574 124.38032532 0.05516052 C137.97405203 0.04248587 151.56767707 0.04509192 165.16140175 0.06081963 C170.34240603 0.06655596 175.52336173 0.06651509 180.70436668 0.06175423 C186.82506029 0.05694993 192.94555571 0.06722816 199.0662117 0.08870888 C201.30255401 0.09423335 203.53891553 0.09478242 205.77525902 0.08975601 C237.1480896 0.0281353 237.1480896 0.0281353 250.32539368 7.12620544 C250.98627991 7.47102966 251.64716614 7.81585388 252.32807922 8.17112732 C259.70171565 12.22703695 265.91250044 18.02491264 268.42304993 26.27854919 C270.20682805 36.13262444 268.72704776 44.34125701 263.38789368 52.77073669 C256.85787337 61.73381745 248.00986717 68.69819549 239.35273743 75.50901794 C234.78943575 79.10605636 230.31729933 82.8157008 225.82539368 86.50120544 C223.99229206 88.00148861 222.1589594 89.50148952 220.32539368 91.00120544 C219.41789368 91.74370544 218.51039368 92.48620544 217.57539368 93.25120544 C176.32539368 127.00120544 135.07539368 160.75120544 93.82539368 194.50120544 C94.56162334 194.49161049 95.29785301 194.48201553 96.05639267 194.47212982 C114.01108894 194.24368192 131.96447581 194.1044971 149.92060471 194.06336212 C158.60451531 194.04133955 167.28631713 193.98965779 175.96943665 193.8669281 C183.54224047 193.75996852 191.11297648 193.709905 198.68655324 193.72675657 C202.6939383 193.73372276 206.69672284 193.71316461 210.70322418 193.62432861 C237.02867588 193.06959566 237.02867588 193.06959566 243.39988708 199.01321411 C246.15894136 202.28867241 248.17374808 205.75068037 249.94525051 209.63901711 C251.11394103 212.11170785 252.66584413 214.18700668 254.34883118 216.33323669 C255.30068844 217.65910119 256.25123741 218.98590603 257.20039368 220.31370544 C261.75962623 226.66001235 266.36739447 232.96778906 271.01289368 239.25120544 C275.27352246 245.0204133 279.51787363 250.8000364 283.70039368 256.62620544 C284.12344788 257.21240662 284.54650208 257.79860779 284.9823761 258.40257263 C287.82539368 262.38195057 287.82539368 262.38195057 287.82539368 263.50120544 C249.22553605 263.56994575 210.62568768 263.62277185 172.02578118 263.65440143 C167.46362392 263.65815333 162.90146678 263.66203632 158.33930969 263.66600037 C156.97700542 263.66718076 156.97700542 263.66718076 155.58717985 263.66838501 C140.90211316 263.68142144 126.21708189 263.70506554 111.53203618 263.73266383 C96.45195047 263.76076714 81.37188324 263.7773921 66.29177243 263.78347093 C56.99448171 263.78757717 47.6972911 263.80052329 38.40003122 263.82495485 C32.01538582 263.84087291 25.6307918 263.84559213 19.24612802 263.84170958 C15.56834226 263.83979743 11.89073083 263.84262616 8.21297646 263.85882187 C-33.63782529 264.03396572 -33.63782529 264.03396572 -48.27616882 251.73558044 C-53.95883798 245.52103585 -55.77355146 238.93036536 -55.51445007 230.61839294 C-53.70647441 214.03489208 -40.67591308 203.36435586 -28.56913757 193.34495544 C-26.11713972 191.38023857 -23.64631751 189.44102941 -21.17460632 187.50120544 C-13.89409878 181.60307275 -6.67858874 175.62429388 0.5526886 169.66600037 C6.29973315 164.93144172 12.05886281 160.21201758 17.82539368 155.50120544 C19.65884404 154.00134849 21.49217539 152.50134604 23.32539368 151.00120544 C26.99206034 148.00120544 30.65872701 145.00120544 34.32539368 142.00120544 C35.24062805 141.25226013 36.15586243 140.50331482 37.09883118 139.73167419 C38.85357152 138.29620609 40.60874522 136.86126749 42.36445618 135.42698669 C48.02880158 130.79796727 53.67979921 126.15306638 59.32539368 121.50120544 C65.81444369 116.15435341 72.31384201 110.82064227 78.82539368 105.50120544 C80.65884404 104.00134849 82.49217539 102.50134604 84.32539368 101.00120544 C87.00439287 98.80895399 89.68363575 96.61701076 92.36445618 94.42698669 C96.6362887 90.93595739 100.90291245 87.43910102 105.15742493 83.92698669 C105.91716614 83.30009949 106.67690735 82.67321228 107.45967102 82.02732849 C108.96975592 80.78087618 110.47921851 79.53366947 111.98799133 78.28562927 C112.68585754 77.70966003 113.38372375 77.1336908 114.10273743 76.54026794 C114.72398499 76.02673767 115.34523254 75.5132074 115.98530579 74.9841156 C117.89612644 73.44420255 119.86212004 71.97366067 121.82539368 70.50120544 C61.43539368 70.17120544 1.04539368 69.84120544 -61.17460632 69.50120544 C-59.75982641 66.67164561 -58.59295424 64.56000938 -56.74101257 62.10276794 C-56.02340759 61.14721008 -56.02340759 61.14721008 -55.29130554 60.17234802 C-54.7784198 59.49712097 -54.26553406 58.82189392 -53.73710632 58.12620544 C-52.93684021 57.06599182 -52.93684021 57.06599182 -52.1204071 55.98435974 C-47.75300587 50.21771283 -43.29690423 44.52373809 -38.81132507 38.84886169 C-35.47645574 34.62582942 -32.20712719 30.35299311 -28.93241882 26.08323669 C-24.94971146 20.89975052 -20.92666308 15.74746289 -16.90776062 10.59202576 C-16.33710876 9.85951599 -15.76645691 9.12700623 -15.17851257 8.37229919 C-14.41776428 7.3966803 -14.41776428 7.3966803 -13.64164734 6.40135193 C-12.11345995 4.55439951 -12.11345995 4.55439951 -11.15632915 2.41377163 C-7.92516101 -0.70463768 -4.32136989 -0.04639079 0 0 Z " fill="#363334" transform="translate(427.1746063232422,5.4987945556640625)"/>
<path d="M0 0 C0.74892014 -0.0049649 1.49784027 -0.00992981 2.26945496 -0.01504517 C4.73433372 -0.02958443 7.19914799 -0.03645727 9.6640625 -0.04199219 C10.93695633 -0.04623325 10.93695633 -0.04623325 12.23556519 -0.05056 C16.73207914 -0.06552425 21.22856128 -0.07476941 25.72509766 -0.07910156 C30.33324029 -0.08456229 34.94108389 -0.10854724 39.5491333 -0.13707352 C43.12344158 -0.15585385 46.69768028 -0.16091375 50.27203369 -0.16243744 C51.96862409 -0.16543316 53.6652142 -0.17335518 55.36175537 -0.18662262 C83.28106717 -0.38926279 83.28106717 -0.38926279 93.4765625 9.22363281 C98.00568111 16.56392849 98.77798008 25.27102209 98.9765625 33.72363281 C99.02562744 35.29963257 99.02562744 35.29963257 99.07568359 36.9074707 C99.4042953 49.63378485 99.39262171 62.36888074 99.4140625 75.09863281 C99.41683197 76.20248322 99.41960144 77.30633362 99.42245483 78.44363403 C99.42831795 81.65028179 99.42642797 84.85682829 99.421875 88.06347656 C99.42384384 89.01797699 99.42581268 89.97247742 99.42784119 90.9559021 C99.35284113 113.16786987 99.35284113 113.16786987 91.68359375 122.01269531 C81.85423773 131.14477436 67.40612446 131.37647054 54.69677734 131.10595703 C51.99694327 130.99884053 49.29966002 130.86793405 46.6015625 130.72363281 C14.7398343 128.5130324 14.7398343 128.5130324 -14.7109375 139.16113281 C-15.7143917 140.15766664 -16.71543181 141.15665861 -17.7109375 142.16113281 C-18.3709375 142.16113281 -19.0309375 142.16113281 -19.7109375 142.16113281 C-19.9790625 142.72316406 -20.2471875 143.28519531 -20.5234375 143.86425781 C-21.78948077 146.31305204 -23.23022893 148.58642036 -24.7109375 150.91113281 C-31.94143001 162.94436122 -30.84411443 177.12133553 -30.75553703 190.71736908 C-30.73794614 193.51123077 -30.72778395 196.3050337 -30.71961975 199.09893799 C-30.69534717 207.03639269 -30.65980029 214.97376802 -30.61499023 222.91113281 C-30.58798851 227.78561128 -30.57108978 232.66004445 -30.56012154 237.53458405 C-30.55397441 239.37631149 -30.54405 241.21803084 -30.53004265 243.05971527 C-30.28510253 275.55493373 -30.28510253 275.55493373 -39.65234375 286.41113281 C-49.17596366 295.67919942 -60.7409973 297.30653687 -73.50488281 297.32226562 C-74.47480667 297.32723053 -75.44473053 297.33219543 -76.44404602 297.33731079 C-79.64239216 297.35187637 -82.84068869 297.35872513 -86.0390625 297.36425781 C-88.27097575 297.37001393 -90.502889 297.3757716 -92.73480225 297.38153076 C-97.41190826 297.39202485 -102.08899716 297.39787792 -106.76611328 297.40136719 C-112.74224292 297.40684811 -118.71814429 297.4308745 -124.69420242 297.45933914 C-129.30461272 297.47801579 -133.91496859 297.48317381 -138.52541351 297.48470306 C-140.7277018 297.48771882 -142.92998937 297.49571074 -145.1322403 297.50888824 C-148.22147208 297.52605363 -151.31015318 297.52404285 -154.39941406 297.51757812 C-155.29845963 297.52679291 -156.19750519 297.53600769 -157.12379456 297.54550171 C-168.29884265 297.47270352 -177.51782155 293.96258925 -185.6875 286.30957031 C-191.69839789 279.88941981 -195.81364423 271.96356608 -195.85137939 263.04040527 C-195.85708954 262.22766144 -195.86279968 261.4149176 -195.86868286 260.57754517 C-195.86980072 259.69440643 -195.87091858 258.8112677 -195.87207031 257.90136719 C-195.87703522 256.96420868 -195.88200012 256.02705017 -195.88711548 255.06149292 C-195.90172478 251.95928206 -195.90853903 248.85712243 -195.9140625 245.75488281 C-195.91981739 243.59216308 -195.92557508 241.42944335 -195.93133545 239.26672363 C-195.94184361 234.72729251 -195.94768669 230.18787907 -195.95117188 225.6484375 C-195.95663941 219.85628818 -195.980631 214.06437597 -196.00914383 208.27230072 C-196.02785496 203.80077454 -196.03298043 199.32930432 -196.03450775 194.85774231 C-196.03751849 192.72409273 -196.04549311 190.59044376 -196.05869293 188.45683289 C-196.22715965 159.11847282 -196.22715965 159.11847282 -186.7109375 147.16113281 C-170.90443953 131.64734777 -145.82170096 135.06502058 -125.3359375 135.16894531 C-124.50823853 135.17277977 -123.68053955 135.17661423 -122.82775879 135.18056488 C-115.02357716 135.21758532 -107.21948944 135.26272405 -99.41552734 135.33251953 C-95.10659135 135.37042708 -90.79778672 135.39325736 -86.4887085 135.40682602 C-84.86859412 135.41479052 -83.24849572 135.4282682 -81.628479 135.44775772 C-66.91283449 135.62208049 -53.13874904 134.30307511 -41.8984375 123.84863281 C-32.35464676 113.5774862 -31.24960013 99.78152924 -31.48544312 86.3565712 C-31.52448646 84.10854872 -31.54346665 81.86107069 -31.55786133 79.61276245 C-31.59751997 74.03232427 -31.67010604 68.45241267 -31.74206543 62.87231445 C-31.80182702 58.13986832 -31.84850242 53.4076219 -31.87875366 48.67489243 C-31.89784444 46.48691555 -31.93534856 44.29979783 -31.97387695 42.11209106 C-32.10280988 30.49068241 -31.66888578 17.39324696 -23.7109375 8.16113281 C-16.61544218 1.04735013 -9.77543427 0.01571989 0 0 Z " fill="#3D3F94" transform="translate(195.7109375,-0.1611328125)"/>
<path d="M0 0 C27.72 0 55.44 0 84 0 C84 86.79 84 173.58 84 263 C56.28 263 28.56 263 0 263 C0 176.21 0 89.42 0 0 Z " fill="#363334" transform="translate(743,6)"/>
<path d="M0 0 C27.39 0 54.78 0 83 0 C83 86.79 83 173.58 83 263 C55.61 263 28.22 263 0 263 C0 176.21 0 89.42 0 0 Z " fill="#363334" transform="translate(1234,6)"/>
<path d="M0 0 C0.82657608 -0.00145523 1.65315216 -0.00291046 2.504776 -0.00440979 C5.19463686 -0.0066502 7.88437052 -0.00037863 10.57421875 0.0078125 C11.49624084 0.00969574 12.41826294 0.01157898 13.3682251 0.01351929 C25.71711737 0.04297409 38.06732344 0.12110534 50.41342163 0.39727783 C51.87380255 0.42882958 53.33428336 0.4561039 54.79483032 0.47869873 C65.43124996 0.65361184 76.16121993 1.05461956 85.26171875 7.1328125 C96.39804903 21.24974882 91.31548233 48.72836986 91.01977539 65.58154297 C90.95855372 69.08638095 90.91188331 72.59124989 90.86894512 76.09635353 C90.82488285 79.49667585 90.76716243 82.89673209 90.7109375 86.296875 C90.69624924 87.53869537 90.68156097 88.78051575 90.66642761 90.05996704 C90.47526204 99.79294926 90.09504021 109.03097714 84.26171875 117.1328125 C75.46159533 124.70501172 63.3712365 123.43035135 52.46875 123.3984375 C50.83363284 123.39978798 49.19851607 123.40173169 47.56340027 123.40423584 C44.14501096 123.40717324 40.72672664 123.40293701 37.30834961 123.39355469 C32.9660157 123.38220642 28.62393037 123.38869902 24.28160572 123.40069962 C20.90545344 123.40799468 17.52935814 123.40559482 14.15320396 123.40044403 C12.5543178 123.39912619 10.95542616 123.40068838 9.3565464 123.40540314 C-18.41034001 123.46928953 -18.41034001 123.46928953 -26.73828125 117.1328125 C-35.02934324 108.61766775 -33.91742339 95.57898983 -33.86328125 84.4453125 C-33.85989746 83.39093994 -33.85651367 82.33656738 -33.85302734 81.25024414 C-33.82922247 77.2108897 -33.78724263 73.17192271 -33.73828125 69.1328125 C-33.7218457 67.76243835 -33.7218457 67.76243835 -33.70507812 66.36437988 C-33.62608007 60.01932907 -33.52984043 53.6747417 -33.41888428 47.33016968 C-33.38200935 45.16829091 -33.34800243 43.00636119 -33.31695557 40.84439087 C-33.27130581 37.76190436 -33.21333461 34.67987291 -33.15234375 31.59765625 C-33.14078247 30.67659088 -33.12922119 29.75552551 -33.11730957 28.80654907 C-32.93926884 20.94197007 -32.38184681 13.01829561 -27.34765625 6.63671875 C-20.02663579 -0.2045261 -9.41848312 -0.02419708 0 0 Z M-9.73828125 26.1328125 C-9.73828125 50.2228125 -9.73828125 74.3128125 -9.73828125 99.1328125 C-1.61203125 99.1946875 6.51421875 99.2565625 14.88671875 99.3203125 C18.68937256 99.36128052 18.68937256 99.36128052 22.56884766 99.40307617 C45.96745613 99.84128771 45.96745613 99.84128771 65.77734375 88.69140625 C72.85033863 80.87276432 75.73805866 70.76690305 75.44921875 60.38671875 C74.5535444 49.61996664 70.36837646 40.39924082 62.26171875 33.1328125 C52.11328199 26.18544245 40.06824514 25.81775641 28.15234375 25.9375 C26.69610596 25.94052124 26.69610596 25.94052124 25.21044922 25.94360352 C21.64415645 25.95393008 18.07793196 25.9818505 14.51171875 26.0078125 C6.50921875 26.0490625 -1.49328125 26.0903125 -9.73828125 26.1328125 Z " fill="#3D3F94" transform="translate(209.73828125,306.8671875)"/>
<path d="M0 0 C1.23195602 -0.00960754 2.46391205 -0.01921509 3.73320007 -0.02911377 C5.0757936 -0.03396351 6.41838928 -0.03824191 7.76098633 -0.04199219 C8.44113611 -0.04481956 9.1212859 -0.04764694 9.82204628 -0.05056 C13.42449962 -0.06553223 17.02691316 -0.07477286 20.62939453 -0.07910156 C24.33010658 -0.0845697 28.03044764 -0.10856777 31.73104382 -0.13707352 C34.5940096 -0.15580878 37.45688817 -0.16091134 40.31991005 -0.16243744 C42.34101768 -0.16689305 44.36207841 -0.18548917 46.38310242 -0.20440674 C53.21454927 -0.18797525 59.73859859 -0.10820889 65.90551758 3.16113281 C69.57813846 7.5223701 70.02112649 12.53530532 70.06665039 18.08398438 C70.07625793 19.03557434 70.08586548 19.98716431 70.09576416 20.96759033 C70.10001404 21.9853656 70.10426392 23.00314087 70.10864258 24.05175781 C70.11434265 25.11094421 70.12004272 26.17013062 70.12591553 27.26141357 C70.13534897 29.50060024 70.14189292 31.73980069 70.14575195 33.97900391 C70.15544326 37.38501535 70.18647719 40.79041946 70.21801758 44.19628906 C70.22454976 46.37727508 70.22979938 48.5582654 70.23364258 50.73925781 C70.24598938 51.74893616 70.25833618 52.7586145 70.27105713 53.79888916 C70.25220544 59.85559601 70.11827458 65.85191979 66.90551758 71.16113281 C60.98660626 76.97175052 51.58670677 75.72416572 43.93286133 75.65722656 C42.48132759 75.65738181 41.02979345 75.65887508 39.57826233 75.66163635 C36.54808037 75.66301493 33.51837486 75.65055278 30.48828125 75.62768555 C26.61925543 75.59927651 22.75101861 75.60205215 18.88193417 75.61477566 C15.88860931 75.62175507 12.89546442 75.61391833 9.90216255 75.60151863 C8.47612767 75.59702785 7.05007331 75.59664641 5.62403679 75.60058403 C-8.27059344 75.62099969 -8.27059344 75.62099969 -14.09448242 72.16113281 C-17.63518795 68.38438025 -18.2193987 64.91810813 -18.25561523 59.86694336 C-18.27002655 58.24462044 -18.27002655 58.24462044 -18.284729 56.58952332 C-18.28897888 55.42077164 -18.29322876 54.25201996 -18.29760742 53.04785156 C-18.3033075 51.84554398 -18.30900757 50.64323639 -18.31488037 49.40449524 C-18.32433318 46.8582955 -18.33086546 44.31208351 -18.3347168 41.76586914 C-18.34441764 37.87461948 -18.37543742 33.98389899 -18.40698242 30.09277344 C-18.41351297 27.61946928 -18.41876324 25.14616135 -18.42260742 22.67285156 C-18.43495422 21.51017258 -18.44730103 20.34749359 -18.46002197 19.14958191 C-18.43190782 8.92909738 -18.43190782 8.92909738 -15.09448242 4.16113281 C-10.21609075 0.5336108 -5.96075254 0.03757528 0 0 Z M-5.09448242 11.16113281 C-5.09448242 28.65113281 -5.09448242 46.14113281 -5.09448242 64.16113281 C15.03551758 64.16113281 35.16551758 64.16113281 55.90551758 64.16113281 C55.90551758 46.67113281 55.90551758 29.18113281 55.90551758 11.16113281 C35.77551758 11.16113281 15.64551758 11.16113281 -5.09448242 11.16113281 Z " fill="#363334" transform="translate(919.094482421875,331.8388671875)"/>
<path d="M0 0 C5.548125 -0.04125 11.09625 -0.0825 16.8125 -0.125 C18.53960205 -0.14320801 20.2667041 -0.16141602 22.04614258 -0.18017578 C46.06228445 -0.33023732 46.06228445 -0.33023732 55.53125 8.4140625 C61.5257746 14.93136541 61.39781061 22.1427702 61.24609375 30.55859375 C60.74587033 37.55378156 58.76559693 43.31132518 53.9296875 48.49609375 C45.86648466 54.78016884 34.80207997 55.17232421 25 55.09765625 C24.03900391 55.09614563 24.03900391 55.09614563 23.05859375 55.09460449 C20.70571049 55.08944221 18.35285311 55.07548205 16 55.0625 C10.72 55.041875 5.44 55.02125 0 55 C0 36.85 0 18.7 0 0 Z " fill="#3D3F94" transform="translate(212,342)"/>
<path d="M0 0 C11 0 11 0 14.20703125 2.61328125 C15.111617 3.82012324 15.97862007 5.05576326 16.8125 6.3125 C17.2969458 6.97677002 17.7813916 7.64104004 18.28051758 8.32543945 C19.32723301 9.766478 20.35859088 11.21877088 21.37597656 12.68066406 C23.06146089 15.08777487 24.79874395 17.44855124 26.5546875 19.8046875 C29.52504607 23.79215556 32.46862579 27.79815669 35.40185547 31.81298828 C37.67521236 34.92400737 39.95508216 38.0298522 42.25 41.125 C42.93578125 42.05570312 43.6215625 42.98640625 44.328125 43.9453125 C45.84033351 46.09163177 45.84033351 46.09163177 48 47 C48.22945312 46.48824219 48.45890625 45.97648437 48.6953125 45.44921875 C50.49993231 42.06150431 52.68741949 38.9593445 54.875 35.8125 C55.35678711 35.11560059 55.83857422 34.41870117 56.33496094 33.70068359 C60.44852621 27.76342889 64.57658968 21.83350967 68.80053711 15.97412109 C70.98339864 12.93694191 73.01645616 9.97079464 74.85546875 6.70703125 C76.4375 3.9375 76.4375 3.9375 80 0 C84.29 0 88.58 0 93 0 C93 24.75 93 49.5 93 75 C88.71 75 84.42 75 80 75 C80 56.52 80 38.04 80 19 C72.575 29.89 72.575 29.89 65 41 C62.40487203 44.7573632 59.80810313 48.5108081 57.1875 52.25 C56.60419922 53.08789062 56.02089844 53.92578125 55.41992188 54.7890625 C54.86240234 55.58570313 54.30488281 56.38234375 53.73046875 57.203125 C53.24989014 57.89051758 52.76931152 58.57791016 52.27416992 59.28613281 C49.57939852 62.91083011 49.57939852 62.91083011 46.59350586 63.37036133 C44 63 44 63 42.18579102 61.3737793 C41.63076904 60.61492432 41.07574707 59.85606934 40.50390625 59.07421875 C39.55185303 57.79780518 39.55185303 57.79780518 38.58056641 56.49560547 C37.91460449 55.56893066 37.24864258 54.64225586 36.5625 53.6875 C35.86817871 52.74793457 35.17385742 51.80836914 34.45849609 50.84033203 C33.01339033 48.88125042 31.57533475 46.91695051 30.14404297 44.94775391 C28.08219594 42.11300771 26.00055032 39.29420715 23.91015625 36.48046875 C14.81879403 24.22819105 14.81879403 24.22819105 12 20 C11.67 38.15 11.34 56.3 11 75 C7.37 75 3.74 75 0 75 C0 50.25 0 25.5 0 0 Z " fill="#363334" transform="translate(1208,332)"/>
<path d="M0 0 C24.42 0 48.84 0 74 0 C74 3.63 74 7.26 74 11 C54.2 11 34.4 11 14 11 C14 17.6 14 24.2 14 31 C25.88 31 37.76 31 50 31 C50 34.3 50 37.6 50 41 C38.12 41 26.24 41 14 41 C14 48.59 14 56.18 14 64 C33.8 64 53.6 64 74 64 C74 67.63 74 71.26 74 75 C49.58 75 25.16 75 0 75 C0 50.25 0 25.5 0 0 Z " fill="#363334" transform="translate(1376,332)"/>
<path d="M0 0 C24.09 0 48.18 0 73 0 C73 3.63 73 7.26 73 11 C53.53 11 34.06 11 14 11 C14 17.6 14 24.2 14 31 C25.88 31 37.76 31 50 31 C50 34.3 50 37.6 50 41 C38.12 41 26.24 41 14 41 C14 48.59 14 56.18 14 64 C33.8 64 53.6 64 74 64 C74 67.63 74 71.26 74 75 C49.58 75 25.16 75 0 75 C0 50.25 0 25.5 0 0 Z " fill="#363334" transform="translate(354,332)"/>
<path d="M0 0 C10.01129586 0 10.01129586 0 14.00561523 3.91015625 C14.51938721 4.45542969 15.03315918 5.00070312 15.5625 5.5625 C16.68952174 6.67897366 17.81712274 7.79486289 18.9453125 8.91015625 C19.47543945 9.44914551 20.00556641 9.98813477 20.55175781 10.54345703 C22.27870932 12.28030678 24.08123664 13.90265749 25.9375 15.5 C26.54851562 16.02980469 27.15953125 16.55960937 27.7890625 17.10546875 C29.59421671 18.65228817 31.40192814 20.19597812 33.2109375 21.73828125 C39.7459895 27.31417513 46.2008787 32.94590427 52.53515625 38.75 C57.05722427 42.87790995 61.66113719 46.90510529 66.375 50.8125 C69 53 69 53 71 55 C71 36.85 71 18.7 71 0 C74.96 0 78.92 0 83 0 C83 24.75 83 49.5 83 75 C74.10170404 75 74.10170404 75 70.43725586 71.44506836 C69.96296143 70.9475708 69.48866699 70.45007324 69 69.9375 C67.96028472 68.91600536 66.91992032 67.895171 65.87890625 66.875 C65.38406738 66.37742187 64.88922852 65.87984375 64.37939453 65.3671875 C62.6352721 63.63849978 60.8043016 62.03213956 58.9375 60.4375 C55.74755391 57.6719958 52.61907011 54.84524228 49.5 52 C45.71337002 48.54671847 41.8952368 45.13900949 38.02734375 41.77734375 C35.66510827 39.70640513 33.33204147 37.60487152 31 35.5 C25.10567413 30.18514703 19.19878142 24.95902513 13 20 C12.67 38.15 12.34 56.3 12 75 C8.04 75 4.08 75 0 75 C0 50.25 0 25.5 0 0 Z " fill="#363334" transform="translate(1517,332)"/>
<path d="M0 0 C10.725 -0.061875 21.45 -0.12375 32.5 -0.1875 C35.87283203 -0.21481201 39.24566406 -0.24212402 42.72070312 -0.27026367 C45.40754844 -0.27902924 48.09439776 -0.28667301 50.78125 -0.29296875 C51.47021362 -0.30080887 52.15917725 -0.30864899 52.86901855 -0.31672668 C67.26416204 -0.47219373 67.26416204 -0.47219373 74 3 C78.80946742 9.0506203 78.21315627 15.93914889 78.25 23.3125 C78.270625 24.33279297 78.29125 25.35308594 78.3125 26.40429688 C78.34351026 32.40090514 77.93863656 36.72899899 75 42 C71.21295878 45.55035115 67.76724804 46.12533158 62.70239258 46.11352539 C61.62149857 46.11344986 60.54060455 46.11337433 59.42695618 46.11329651 C58.26125595 46.10813522 57.09555573 46.10297394 55.89453125 46.09765625 C54.70018967 46.0962413 53.50584808 46.09482635 52.27531433 46.09336853 C48.45435092 46.0877635 44.63344575 46.07521011 40.8125 46.0625 C38.22461022 46.05748565 35.63671952 46.05292263 33.04882812 46.04882812 C26.69917817 46.03864261 20.34965441 46.01906803 14 46 C14 55.57 14 65.14 14 75 C9.38 75 4.76 75 0 75 C0 50.25 0 25.5 0 0 Z M14 11 C14 19.25 14 27.5 14 36 C19.85347034 36.04602991 25.70630703 36.08582029 31.55981445 36.10986328 C33.54909397 36.11989136 35.53835886 36.13351717 37.52758789 36.15087891 C40.39473085 36.17526791 43.2616781 36.18651526 46.12890625 36.1953125 C47.01147598 36.20563507 47.89404572 36.21595764 48.80335999 36.22659302 C53.91540389 36.22751197 58.19604354 35.81487224 63 34 C64.62735933 30.74528133 64.22626042 27.19780619 64.25 23.625 C64.270625 22.85671875 64.29125 22.0884375 64.3125 21.296875 C64.31765625 20.55179687 64.3228125 19.80671875 64.328125 19.0390625 C64.3374707 18.36053223 64.34681641 17.68200195 64.35644531 16.98291016 C63.87208247 14.28839301 62.85653114 12.99906524 61 11 C58.81308937 10.42351357 58.81308937 10.42351357 56.3449707 10.54589844 C54.93384758 10.54635162 54.93384758 10.54635162 53.49421692 10.54681396 C51.97534126 10.57778168 51.97534126 10.57778168 50.42578125 10.609375 C49.38681198 10.61503479 48.34784271 10.62069458 47.27738953 10.62652588 C43.95529319 10.64893673 40.63427096 10.6991431 37.3125 10.75 C35.06186452 10.77005885 32.81121216 10.78831069 30.56054688 10.8046875 C25.03961675 10.84541734 19.52101213 10.92370194 14 11 Z " fill="#363334" transform="translate(1063,332)"/>
<path d="M0 0 C24.09 0 48.18 0 73 0 C73 3.63 73 7.26 73 11 C53.2 11 33.4 11 13 11 C13 17.6 13 24.2 13 31 C25.21 31 37.42 31 50 31 C50 34.3 50 37.6 50 41 C37.79 41 25.58 41 13 41 C13 48.59 13 56.18 13 64 C33.13 64 53.26 64 74 64 C74 67.63 74 71.26 74 75 C49.58 75 25.16 75 0 75 C0 50.25 0 25.5 0 0 Z " fill="#363334" transform="translate(632,332)"/>
<path d="M0 0 C4.62 0 9.24 0 14 0 C22.00550093 13.92773729 29.68808703 27.97525101 37.02734375 42.265625 C39.92433491 47.89582665 42.94203289 53.45586421 46 59 C48.85216472 55.51107293 50.82683628 51.65952531 52.84375 47.65625 C53.20977325 46.93814651 53.57579651 46.22004303 53.95291138 45.48017883 C54.73449918 43.9467307 55.51457785 42.41251259 56.29327393 40.87759399 C63.28151444 27.10877021 70.41398602 13.45097192 78 0 C82.29 0 86.58 0 91 0 C89.61299608 4.16101176 88.36920942 7.48045674 86.3828125 11.28125 C85.60538696 12.77434692 85.60538696 12.77434692 84.81225586 14.29760742 C83.97706421 15.88279175 83.97706421 15.88279175 83.125 17.5 C82.54564697 18.60641846 81.96629395 19.71283691 81.36938477 20.8527832 C76.19853955 30.69447758 70.89396502 40.46055118 65.53662109 50.20166016 C62.7627863 55.2530892 60.00776849 60.31478784 57.25 65.375 C56.23445129 67.23702078 55.21883371 69.09900399 54.203125 70.9609375 C53.47609375 72.29382813 52.7490625 73.62671875 52 75 C48.04 75 44.08 75 40 75 C39.59386475 74.26289795 39.18772949 73.5257959 38.76928711 72.76635742 C31.21784887 59.06369858 23.65814678 45.36571262 16.0625 31.6875 C15.1351001 30.01530396 15.1351001 30.01530396 14.18896484 28.30932617 C11.50625254 23.47863871 8.8134052 18.6555177 6.0625 13.86328125 C5.63316162 13.11280518 5.20382324 12.3623291 4.76147461 11.58911133 C3.99201008 10.2483848 3.21723118 8.91068634 2.43579102 7.5769043 C0.84648195 4.80683185 0 3.25629623 0 0 Z " fill="#353333" transform="translate(480,332)"/>
<path d="M0 0 C27.06 0 54.12 0 82 0 C82 3.63 82 7.26 82 11 C70.78 11 59.56 11 48 11 C48 32.12 48 53.24 48 75 C43.38 75 38.76 75 34 75 C34 53.88 34 32.76 34 11 C22.78 11 11.56 11 0 11 C0 7.37 0 3.74 0 0 Z " fill="#363334" transform="translate(1658,332)"/>
<path d="M0 0 C4.62 0 9.24 0 14 0 C14 21.12 14 42.24 14 64 C32.48 64 50.96 64 70 64 C70 67.63 70 71.26 70 75 C46.9 75 23.8 75 0 75 C0 50.25 0 25.5 0 0 Z " fill="#363334" transform="translate(772,332)"/>
</svg>
